<?xml version="1.0" encoding="UTF-8"?>
<svg version="1.1" xmlns="http://www.w3.org/2000/svg" width="128" height="128">
<path d="M0 0 C1.06992188 0.474375 2.13984375 0.94875 3.2421875 1.4375 C19.75466286 9.51889971 30.60523995 22.82755446 37 40 C41.30117326 53.9146728 41.09524021 71.68480263 35 85 C34.525625 86.06992188 34.05125 87.13984375 33.5625 88.2421875 C25.53996296 104.63439059 12.16715507 115.82260053 -5 122 C-22.41824347 127.05634913 -41.59366026 125.04005104 -57.41772461 116.46020508 C-72.85764719 107.52172136 -82.86748581 93.36904589 -88.11328125 76.3984375 C-91.19627114 63.38867917 -90.58043482 47.19059274 -85 35 C-84.2884375 33.39511719 -84.2884375 33.39511719 -83.5625 31.7578125 C-76.02023746 16.34693952 -63.75955422 4.8222872 -47.5 -0.9375 C-32.6348793 -5.87580023 -14.47317348 -6.62532192 0 0 Z M-34 28 C-35.34513858 29.4819835 -36.67380023 30.97903888 -37.98828125 32.48828125 C-41.57215639 36.50818777 -45.29287696 40.31292699 -49.1640625 44.05078125 C-49.69154587 44.56326416 -50.21902924 45.07574707 -50.76249695 45.60375977 C-52.9387833 47.71735101 -55.11602108 49.82916844 -57.31591797 51.91821289 C-58.9457532 53.46965878 -60.55602074 55.03930028 -62.1640625 56.61328125 C-62.665961 57.08107498 -63.1678595 57.54886871 -63.68496704 58.03083801 C-65.24677938 59.51276136 -65.24677938 59.51276136 -67 62 C-66.94028694 64.775932 -66.94028694 64.775932 -66 67 C-63.80085503 67.59197613 -63.80085503 67.59197613 -61 67 C-57.78560273 64.50330663 -55.19770862 61.39070528 -52.55004883 58.31640625 C-47.69159327 52.69848585 -42.62959971 47.31038006 -37.4375 42 C-36.61314453 41.12988281 -35.78878906 40.25976562 -34.93945312 39.36328125 C-34.13314453 38.54214844 -33.32683594 37.72101562 -32.49609375 36.875 C-31.77607178 36.12992188 -31.0560498 35.38484375 -30.31420898 34.6171875 C-27.33361955 32.53432808 -25.56488681 32.55227151 -22 33 C-19.47265625 34.90625 -19.47265625 34.90625 -17.0625 37.5 C-16.26972656 38.3353125 -15.47695312 39.170625 -14.66015625 40.03125 C-12.64928593 42.27539309 -10.66959107 44.53726935 -8.69921875 46.81640625 C-4.88197684 51.19301356 -0.85347799 55.33019414 3.25 59.4375 C4.30960938 60.51547852 4.30960938 60.51547852 5.390625 61.61523438 C6.07125 62.29779297 6.751875 62.98035156 7.453125 63.68359375 C8.06317383 64.29775146 8.67322266 64.91190918 9.30175781 65.54467773 C11.04657619 67.22507995 11.04657619 67.22507995 14 68 C14.99 67.34 15.98 66.68 17 66 C16.70561329 60.54365074 13.52301077 58.02191103 9.8046875 54.44921875 C9.17901886 53.83158157 8.55335022 53.2139444 7.90872192 52.57759094 C5.90672429 50.60454801 3.89161921 48.64558619 1.875 46.6875 C-0.75675129 44.11228026 -3.38292841 41.53143567 -6.0078125 38.94921875 C-6.63560608 38.33392303 -7.26339966 37.71862732 -7.91021729 37.08468628 C-11.66721268 33.38341197 -15.26445877 29.61800564 -18.60107422 25.52661133 C-20.25126009 23.72580639 -21.96724102 22.35152241 -24 21 C-28.05193841 21 -31.21134955 25.34216725 -34 28 Z M-30.46998596 43.21774292 C-31.06899216 43.82393463 -31.66799835 44.43012634 -32.28515625 45.0546875 C-33.20958778 45.97980637 -33.20958778 45.97980637 -34.1526947 46.9236145 C-35.4571127 48.23105828 -36.7590947 49.54093619 -38.05883789 50.85302734 C-40.05240601 52.86481377 -42.05382167 54.86852112 -44.05664062 56.87109375 C-45.32078493 58.14015457 -46.58447226 59.4096708 -47.84765625 60.6796875 C-48.44868668 61.28183075 -49.0497171 61.883974 -49.66896057 62.50436401 C-54.3027194 67.19148028 -55.12665185 68.95997709 -55.1328125 75.50390625 C-55.13410156 76.80134766 -55.13539062 78.09878906 -55.13671875 79.43554688 C-55.13462402 80.11222412 -55.1325293 80.78890137 -55.13037109 81.48608398 C-55.12501202 83.55785415 -55.13032518 85.62940839 -55.13671875 87.70117188 C-55.13542969 88.99732422 -55.13414063 90.29347656 -55.1328125 91.62890625 C-55.13168457 92.82588135 -55.13055664 94.02285645 -55.12939453 95.25610352 C-55.31262793 97.91170996 -55.31262793 97.91170996 -54 99 C-52.52347336 99.09880797 -51.04232764 99.13079245 -49.5625 99.1328125 C-48.22058594 99.13474609 -48.22058594 99.13474609 -46.8515625 99.13671875 C-45.44003906 99.13091797 -45.44003906 99.13091797 -44 99.125 C-43.05898438 99.12886719 -42.11796875 99.13273437 -41.1484375 99.13671875 C-40.25382812 99.13542969 -39.35921875 99.13414063 -38.4375 99.1328125 C-37.19806641 99.13112061 -37.19806641 99.13112061 -35.93359375 99.12939453 C-33.99320961 99.21264807 -33.99320961 99.21264807 -33 98 C-32.84417697 96.65984779 -32.74955858 95.31241097 -32.68359375 93.96484375 C-32.64169922 93.15595703 -32.59980469 92.34707031 -32.55664062 91.51367188 C-32.51732422 90.66353516 -32.47800781 89.81339844 -32.4375 88.9375 C-32.39431641 88.08349609 -32.35113281 87.22949219 -32.30664062 86.34960938 C-32.20023298 84.23327963 -32.09958269 82.11666187 -32 80 C-27.38 80 -22.76 80 -18 80 C-17.93941406 81.28777344 -17.87882812 82.57554688 -17.81640625 83.90234375 C-17.73201753 85.58074159 -17.6473687 87.25912636 -17.5625 88.9375 C-17.52318359 89.78763672 -17.48386719 90.63777344 -17.44335938 91.51367188 C-17.40146484 92.32255859 -17.35957031 93.13144531 -17.31640625 93.96484375 C-17.26141968 95.08814087 -17.26141968 95.08814087 -17.20532227 96.23413086 C-17.18228937 98.02461326 -17.18228937 98.02461326 -16 99 C-14.52347336 99.09880797 -13.04232764 99.13079245 -11.5625 99.1328125 C-10.22058594 99.13474609 -10.22058594 99.13474609 -8.8515625 99.13671875 C-7.44003906 99.13091797 -7.44003906 99.13091797 -6 99.125 C-5.05898437 99.12886719 -4.11796875 99.13273437 -3.1484375 99.13671875 C-2.25382812 99.13542969 -1.35921875 99.13414063 -0.4375 99.1328125 C0.80193359 99.13112061 0.80193359 99.13112061 2.06640625 99.12939453 C4.00679039 99.21264807 4.00679039 99.21264807 5 98 C7.37061831 80.48840313 7.37061831 80.48840313 2.40625 64.265625 C-0.38958944 61.0438392 -3.58094643 58.35254881 -6.92431641 55.71533203 C-10.65650045 52.63107832 -13.90107206 49.05094956 -17.25 45.5625 C-18.49753952 44.28543199 -19.75213137 43.01519187 -21.015625 41.75390625 C-21.80888184 40.95448608 -21.80888184 40.95448608 -22.61816406 40.13891602 C-26.05110103 37.30947238 -27.93482324 40.69657826 -30.46998596 43.21774292 Z " fill="#63828a" transform="translate(89,4)"/>
</svg>
